<?xml version="1.0" encoding="UTF-8" standalone="no"?>
<!-- Created with Inkscape (http://www.inkscape.org/) -->

<svg
   xmlns:dc="http://purl.org/dc/elements/1.1/"
   xmlns:cc="http://creativecommons.org/ns#"
   xmlns:rdf="http://www.w3.org/1999/02/22-rdf-syntax-ns#"
   xmlns:svg="http://www.w3.org/2000/svg"
   xmlns="http://www.w3.org/2000/svg"
   xmlns:sodipodi="http://sodipodi.sourceforge.net/DTD/sodipodi-0.dtd"
   xmlns:inkscape="http://www.inkscape.org/namespaces/inkscape"
   width="1052.3622"
   height="744.09448"
   id="svg2816"
   version="1.1"
   inkscape:version="0.46+devel"
   sodipodi:docname="bumpy-ride.svg"
   inkscape:output_extension="org.inkscape.output.svg.inkscape">
  <defs
     id="defs2818">
    <inkscape:perspective
       id="perspective5038"
       inkscape:persp3d-origin="0.5 : 0.33333333 : 1"
       inkscape:vp_z="1 : 0.5 : 1"
       inkscape:vp_y="0 : 1000 : 0"
       inkscape:vp_x="0 : 0.5 : 1"
       sodipodi:type="inkscape:persp3d" />
    <inkscape:perspective
       id="perspective5060"
       inkscape:persp3d-origin="0.5 : 0.33333333 : 1"
       inkscape:vp_z="1 : 0.5 : 1"
       inkscape:vp_y="0 : 1000 : 0"
       inkscape:vp_x="0 : 0.5 : 1"
       sodipodi:type="inkscape:persp3d" />
  </defs>
  <sodipodi:namedview
     inkscape:document-units="px"
     pagecolor="#ffffff"
     bordercolor="#666666"
     borderopacity="1.0"
     inkscape:pageopacity="0"
     inkscape:pageshadow="2"
     inkscape:zoom="1"
     inkscape:cx="508.88869"
     inkscape:cy="287.77088"
     inkscape:current-layer="layer1"
     id="namedview2820"
     showgrid="false"
     inkscape:window-width="1024"
     inkscape:window-height="550"
     inkscape:window-x="0"
     inkscape:window-y="0"
     inkscape:window-maximized="1" />
  <metadata
     id="metadata2822">
    <rdf:RDF>
      <cc:Work
         rdf:about="">
        <dc:format>image/svg+xml</dc:format>
        <dc:type
           rdf:resource="http://purl.org/dc/dcmitype/StillImage" />
        <dc:title />
        <dc:description>width: 100;
gravity: 10;</dc:description>
        <cc:license
           rdf:resource="" />
      </cc:Work>
    </rdf:RDF>
  </metadata>
  <g
     inkscape:label="Layer 1"
     inkscape:groupmode="layer"
     id="layer1"
     transform="translate(0,1.2188976e-5)">
    <path
       sodipodi:type="star"
       style="fill:none;stroke:#000000;stroke-width:2.03992057;stroke-miterlimit:4;stroke-opacity:1;stroke-dasharray:none"
       id="path2848"
       sodipodi:sides="5"
       sodipodi:cx="211.90425"
       sodipodi:cy="267.30994"
       sodipodi:r1="26.261742"
       sodipodi:r2="13.130871"
       sodipodi:arg1="0.90975316"
       sodipodi:arg2="1.5380717"
       inkscape:flatsided="false"
       inkscape:rounded="-0.080676994"
       inkscape:randomized="0"
       d="M 228.0274,288.0397 C 229.13799,287.17591 210.92766,280.47981 212.33388,280.43378 C 213.74009,280.38774 196.00669,288.2605 197.1714,289.04981 C 198.33611,289.83912 199.07717,270.45086 199.5555,271.77403 C 200.03382,273.09719 187.06646,258.66454 186.6757,260.01615 C 186.28494,261.36777 204.95327,256.08126 203.84268,256.94505 C 202.73208,257.80885 212.45121,241.01622 211.045,241.06226 C 209.63878,241.10829 220.43539,257.22931 219.27068,256.44 C 218.10597,255.65069 237.08008,259.70492 236.60176,258.38176 C 236.12343,257.0586 224.12776,272.30844 224.51853,270.95683 C 224.90929,269.60521 226.91681,288.9035 228.0274,288.0397 z"
       transform="matrix(0.49176693,0,0,0.48866827,-16.511931,321.30441)">
      <desc
         id="desc2852">type: start;</desc>
    </path>
    <path
       sodipodi:type="star"
       style="fill:none;stroke:#000000;stroke-width:2.31001568;stroke-miterlimit:4;stroke-opacity:1;stroke-dasharray:none"
       id="path2850"
       sodipodi:sides="5"
       sodipodi:cx="813.06738"
       sodipodi:cy="352.53229"
       sodipodi:r1="26.261742"
       sodipodi:r2="13.130871"
       sodipodi:arg1="0.66104317"
       sodipodi:arg2="1.2893617"
       inkscape:flatsided="false"
       inkscape:rounded="-0.080676994"
       inkscape:randomized="0"
       d="M 833.79715,368.65544 C 834.66094,367.54484 815.36266,365.53733 816.71427,365.14656 C 818.06589,364.7558 802.81604,376.75147 804.13921,377.22979 C 805.46237,377.70812 801.40814,358.734 802.19744,359.89871 C 802.98675,361.06342 786.86574,350.26682 786.8197,351.67303 C 786.77367,353.07925 803.5663,343.36012 802.7025,344.47071 C 801.83871,345.58131 807.12522,326.91297 805.7736,327.30374 C 804.42199,327.6945 818.85464,340.66186 817.53147,340.18354 C 816.20831,339.70521 835.59657,338.96415 834.80726,337.79944 C 834.01795,336.63473 826.14519,354.36813 826.19122,352.96191 C 826.23726,351.5557 832.93335,369.76603 833.79715,368.65544 z"
       transform="matrix(0.43547178,0,0,0.43033842,607.42373,257.60328)">
      <desc
         id="desc2854">type: goal;</desc>
    </path>
    <path
       style="fill:none;stroke:#ce319a;stroke-width:6;stroke-linecap:round;stroke-linejoin:round;stroke-miterlimit:4;stroke-opacity:1;stroke-dasharray:none"
       d="M 653.81516,443.90035 L 597.827,481.25247 L 517.28593,462.47256 L 510.04045,426.57975 L 611.11767,362.33572 L 674.13139,376.07266"
       id="path4770-0"
       sodipodi:nodetypes="cccccc" />
    <path
       style="fill:none;stroke:#2b6896;stroke-width:4;stroke-linecap:round;stroke-linejoin:round;stroke-miterlimit:4;stroke-opacity:1;stroke-dasharray:none"
       d="M 57.724132,472.89174 L 316.0837,471.33558 L 384.13638,445.06722 L 417.94455,496.57673 L 475.1543,531.73705 L 537.38774,545.9759 L 707.76974,547.70218 L 738.76794,528.88523 L 757.3179,498.00656 L 757.34142,462.32399 L 738.53325,431.32243 L 993.03652,429.10567"
       id="path4770-2"
       sodipodi:nodetypes="cccccccccccc" />
  </g>
</svg>
