<?xml version="1.0" encoding="UTF-8" standalone="no"?>
<!-- Created with Inkscape (http://www.inkscape.org/) -->

<svg
   xmlns:dc="http://purl.org/dc/elements/1.1/"
   xmlns:cc="http://creativecommons.org/ns#"
   xmlns:rdf="http://www.w3.org/1999/02/22-rdf-syntax-ns#"
   xmlns:svg="http://www.w3.org/2000/svg"
   xmlns="http://www.w3.org/2000/svg"
   xmlns:sodipodi="http://sodipodi.sourceforge.net/DTD/sodipodi-0.dtd"
   xmlns:inkscape="http://www.inkscape.org/namespaces/inkscape"
   width="1052.3622"
   height="744.09448"
   id="svg2"
   version="1.1"
   inkscape:version="0.46+devel"
   sodipodi:docname="buggy.svg"
   inkscape:output_extension="org.inkscape.output.svg.inkscape">
  <defs
     id="defs4">
    <inkscape:perspective
       sodipodi:type="inkscape:persp3d"
       inkscape:vp_x="0 : 372.04724 : 1"
       inkscape:vp_y="0 : 1000 : 0"
       inkscape:vp_z="1052.3622 : 372.04724 : 1"
       inkscape:persp3d-origin="526.18109 : 248.03149 : 1"
       id="perspective5028" />
  </defs>
  <sodipodi:namedview
     id="base"
     pagecolor="#ffffff"
     bordercolor="#666666"
     borderopacity="1.0"
     inkscape:pageopacity="0.0"
     inkscape:pageshadow="2"
     inkscape:zoom="0.5"
     inkscape:cx="542.4132"
     inkscape:cy="175.06547"
     inkscape:document-units="px"
     inkscape:current-layer="layer1"
     showgrid="false"
     inkscape:window-width="1024"
     inkscape:window-height="550"
     inkscape:window-x="0"
     inkscape:window-y="0"
     inkscape:window-maximized="1" />
  <metadata
     id="metadata7">
    <rdf:RDF>
      <cc:Work
         rdf:about="">
        <dc:format>image/svg+xml</dc:format>
        <dc:type
           rdf:resource="http://purl.org/dc/dcmitype/StillImage" />
        <dc:title />
        <dc:description>width: 5;</dc:description>
      </cc:Work>
    </rdf:RDF>
  </metadata>
  <g
     inkscape:label="Layer 1"
     inkscape:groupmode="layer"
     id="layer1"
     transform="translate(0,-308.2677)">
    <rect
       style="fill:#e9133b;fill-opacity:1;stroke:none"
       id="rect2840"
       width="490.93115"
       height="192.33498"
       x="299.05142"
       y="726.58759"
       inkscape:label="frame">
      <desc
         id="desc2833">density: 1;
motor-torque: 5;
motor-damping: 0.5;</desc>
    </rect>
    <path
       sodipodi:type="arc"
       style="fill:#000000;stroke:none;stroke-width:0.61772150000000003;stroke-miterlimit:4;stroke-opacity:1;stroke-dasharray:none;fill-opacity:1"
       id="path2816"
       sodipodi:cx="274"
       sodipodi:cy="594.09448"
       sodipodi:rx="72"
       sodipodi:ry="72"
       d="M 346,594.09448 C 346,633.85898 313.7645,666.09448 274,666.09448 C 234.2355,666.09448 202,633.85898 202,594.09448 C 202,554.32998 234.2355,522.09448 274,522.09448 C 313.7645,522.09448 346,554.32998 346,594.09448 z"
       transform="matrix(1.61898,0,0,1.618725,-78.718124,-28.928131)"
       inkscape:label="back-wheel">
      <desc
         id="desc2829">density: 0.5;
friction: 10;</desc>
    </path>
    <path
       sodipodi:type="arc"
       style="fill:#000000;stroke:none;stroke-width:0.60690027000000002;stroke-miterlimit:4;stroke-opacity:1;stroke-dasharray:none;fill-opacity:1"
       id="path2816-6"
       sodipodi:cx="274"
       sodipodi:cy="594.09448"
       sodipodi:rx="72"
       sodipodi:ry="72"
       d="M 346,594.09448 C 346,633.85898 313.7645,666.09448 274,666.09448 C 234.2355,666.09448 202,633.85898 202,594.09448 C 202,554.32998 234.2355,522.09448 274,522.09448 C 313.7645,522.09448 346,554.32998 346,594.09448 z"
       transform="matrix(1.6478467,0,0,-1.6475873,261.6024,1910.3158)"
       inkscape:label="front-wheel">
      <desc
         id="desc2831">density: 0.5;
friction: 10;</desc>
    </path>
    <path
       style="fill:none;stroke:#ceff00;stroke-width:1px;stroke-opacity:1"
       d="M 540.19136,901.52413 L 366.27243,931.87437"
       id="path2848"
       sodipodi:nodetypes="cc">
      <desc
         id="desc3622">type: distance-joint;</desc>
    </path>
    <path
       style="fill:none;stroke:#ceff00;stroke-width:0.99999994000000003px;stroke-opacity:1"
       d="M 712.30294,932.13505 L 537.75617,901.4823"
       id="path2848-2"
       sodipodi:nodetypes="cc">
      <desc
         id="desc3622-1">type: distance-joint;</desc>
    </path>
    <path
       style="fill:none;stroke:#ceff00;stroke-width:1px;stroke-opacity:1"
       d="M 712.24444,933.06795 L 597.06197,738.41064"
       id="path2848-2-6"
       sodipodi:nodetypes="cc">
      <desc
         id="desc3622-1-7">type: spring;
spring-constant: 200;
damping: 10;
max-force: 100;</desc>
    </path>
    <path
       style="fill:none;stroke:#ceff00;stroke-width:1px;stroke-opacity:1"
       d="M 365.56414,933.06796 L 477.19854,740.18441"
       id="path2848-2-6-2"
       sodipodi:nodetypes="cc">
      <desc
         id="desc3622-1-7-7">type: spring;
spring-constant: 200;
damping: 10;
max-force: 100;</desc>
    </path>
    <path
       sodipodi:type="star"
       style="fill:none;stroke:#ceff00;stroke-width:1;stroke-miterlimit:4;stroke-opacity:1;stroke-dasharray:none"
       id="path2864"
       sodipodi:sides="5"
       sodipodi:cx="176.7767"
       sodipodi:cy="571.56042"
       sodipodi:r1="30.066593"
       sodipodi:r2="15.033296"
       sodipodi:arg1="0.85196633"
       sodipodi:arg2="1.4802849"
       inkscape:flatsided="false"
       inkscape:rounded="-0.080676994"
       inkscape:randomized="0"
       d="M 196.57569,594.18784 C 197.78795,593.12712 176.53131,586.67778 178.13553,586.53218 C 179.73975,586.38659 159.99155,596.5575 161.37497,597.38264 C 162.75839,598.20778 162.32341,575.99856 162.95761,577.47927 C 163.59182,578.95998 147.81618,563.32132 147.45892,564.89201 C 147.10166,566.46271 168.08947,559.18599 166.87721,560.24672 C 165.66495,561.30744 175.66326,541.47131 174.05905,541.61691 C 172.45483,541.7625 185.86099,559.47446 184.47757,558.64932 C 183.09415,557.82417 205.04908,561.20343 204.41488,559.72272 C 203.78068,558.24201 191.07833,576.46533 191.43559,574.89463 C 191.79285,573.32394 195.36343,595.24857 196.57569,594.18784 z"
       transform="translate(190.91883,360.83624)">
      <desc
         id="desc2866">type: motor;
torque: 200;
damping: 5;
clockwise-key: space;
counter-clockwise-key: down;</desc>
    </path>
    <path
       sodipodi:type="star"
       style="fill:none;stroke:#ceff00;stroke-width:1;stroke-miterlimit:4;stroke-opacity:1;stroke-dasharray:none"
       id="path2864-3"
       sodipodi:sides="5"
       sodipodi:cx="176.7767"
       sodipodi:cy="571.56042"
       sodipodi:r1="30.066593"
       sodipodi:r2="15.033296"
       sodipodi:arg1="0.85196633"
       sodipodi:arg2="1.4802849"
       inkscape:flatsided="false"
       inkscape:rounded="-0.080676994"
       inkscape:randomized="0"
       d="M 196.57569,594.18784 C 197.78795,593.12712 176.53131,586.67778 178.13553,586.53218 C 179.73975,586.38659 159.99155,596.5575 161.37497,597.38264 C 162.75839,598.20778 162.32341,575.99856 162.95761,577.47927 C 163.59182,578.95998 147.81618,563.32132 147.45892,564.89201 C 147.10166,566.46271 168.08947,559.18599 166.87721,560.24672 C 165.66495,561.30744 175.66326,541.47131 174.05905,541.61691 C 172.45483,541.7625 185.86099,559.47446 184.47757,558.64932 C 183.09415,557.82417 205.04908,561.20343 204.41488,559.72272 C 203.78068,558.24201 191.07833,576.46533 191.43559,574.89463 C 191.79285,573.32394 195.36343,595.24857 196.57569,594.18784 z"
       transform="translate(362.53084,290.96219)">
      <desc
         id="desc2866-5">type: motor;
torque: 10;
damping: 2;
clockwise-key: right;
counter-clockwise-key: left;</desc>
    </path>
    <path
       sodipodi:type="star"
       style="fill:none;stroke:#ceff00;stroke-width:1;stroke-miterlimit:4;stroke-opacity:1;stroke-dasharray:none"
       id="path2864-3-4"
       sodipodi:sides="5"
       sodipodi:cx="176.7767"
       sodipodi:cy="571.56042"
       sodipodi:r1="30.066593"
       sodipodi:r2="15.033296"
       sodipodi:arg1="0.85196633"
       sodipodi:arg2="1.4802849"
       inkscape:flatsided="false"
       inkscape:rounded="-0.080676994"
       inkscape:randomized="0"
       d="M 196.57569,594.18784 C 197.78795,593.12712 176.53131,586.67778 178.13553,586.53218 C 179.73975,586.38659 159.99155,596.5575 161.37497,597.38264 C 162.75839,598.20778 162.32341,575.99856 162.95761,577.47927 C 163.59182,578.95998 147.81618,563.32132 147.45892,564.89201 C 147.10166,566.46271 168.08947,559.18599 166.87721,560.24672 C 165.66495,561.30744 175.66326,541.47131 174.05905,541.61691 C 172.45483,541.7625 185.86099,559.47446 184.47757,558.64932 C 183.09415,557.82417 205.04908,561.20343 204.41488,559.72272 C 203.78068,558.24201 191.07833,576.46533 191.43559,574.89463 C 191.79285,573.32394 195.36343,595.24857 196.57569,594.18784 z"
       transform="translate(362.2882,216.49415)">
      <desc
         id="desc2866-5-1">type: camera;</desc>
    </path>
  </g>
</svg>
